<svg xmlns="http://www.w3.org/2000/svg" viewBox="0 0 228.5 126.21"><defs><style>.cls-1{fill:#fff;}</style></defs><title>wordmark-white</title><g id="Layer_2" data-name="Layer 2"><g id="Layer_2-2" data-name="Layer 2"><path class="cls-1" d="M134.08,111l-.39-55.13L145.31,45c0,12.18,0,52.56,0,57,0,5.18,6.54,8.94,9.35,10.31a2.52,2.52,0,0,0,1.08.25,2.49,2.49,0,0,0,.61-.08l-11.6,12Z"/><path class="cls-1" d="M143.81,48.44c0,15,0,49.45,0,53.53,0,5.66,6.3,9.66,9.6,11.36l-8.55,8.83-9.32-11.68-.39-54,8.62-8.08m3-6.93L132.49,54.94a1,1,0,0,0-.3.71l.4,55.55a.94.94,0,0,0,.2.59l11.21,14a1,1,0,0,0,.75.36.94.94,0,0,0,.69-.29l22-22.68V103l-11.09,7.86a1,1,0,0,1-.55.17.9.9,0,0,1-.42-.1c-1.91-.93-8.51-4.48-8.51-9,0-5.23,0-60.46,0-60.46Z"/><path class="cls-1" d="M161.57,68.44a2.47,2.47,0,0,0-.92-1.65,44,44,0,0,1-8.42-8.43c-4.27-6.15-4.09-14.25-4-16.23L156,33.31c.16,4.45.7,12.57,5.64,18a66.92,66.92,0,0,1,4.77,5.83,13.47,13.47,0,0,0,2.2,2.55Z"/><path class="cls-1" d="M154.73,37c.44,4.67,1.7,10.78,5.8,15.27A65.1,65.1,0,0,1,165.2,58c.5.67.94,1.26,1.39,1.78l-4.81,6-.21-.18a42.71,42.71,0,0,1-8.11-8.11c-3.71-5.34-3.82-12.33-3.73-14.78l5-5.68M156.49,31a.89.89,0,0,0-.63.25l-9.06,10.3s-1.08,10.11,4.19,17.7A45.65,45.65,0,0,0,159.72,68a1,1,0,0,1,.14,1.38l-20,28.58h0L170.11,60.2a1,1,0,0,0-.21-1.44c-1.58-1-2.28-3.12-7.15-8.47-5.13-5.63-5.16-14.75-5.3-18.41a1,1,0,0,0-1-.92Z"/><path class="cls-1" d="M198.67,47.53a23.35,23.35,0,0,1-9.25-2.23A15,15,0,0,0,184,43.81a5.4,5.4,0,0,0-2.34.5,19.5,19.5,0,0,1,7.22-7.53,14.37,14.37,0,0,1,7.33-2.28,22.71,22.71,0,0,1,5.39.88,30.12,30.12,0,0,0,7.54,1.13,23.56,23.56,0,0,0,4.52-.45,33.36,33.36,0,0,0,6.52-1.87,26.36,26.36,0,0,1-16.52,12.66A19.58,19.58,0,0,1,198.67,47.53Z"/><path class="cls-1" d="M196.22,36a21.53,21.53,0,0,1,5,.83,31.44,31.44,0,0,0,7.9,1.18,25,25,0,0,0,4.81-.48c.91-.18,1.75-.37,2.54-.57a24.79,24.79,0,0,1-13.21,8.44,18,18,0,0,1-4.62.63A22.12,22.12,0,0,1,190,43.91a19.24,19.24,0,0,0-5.21-1.57,17.38,17.38,0,0,1,4.87-4.26A12.57,12.57,0,0,1,196.22,36m27.66-6.65s0,.08-.07.23a1.05,1.05,0,0,0,.07-.23Zm-.07.23c-.28.77-1.84,3.33-10.43,5a21.28,21.28,0,0,1-4.23.43c-5.25,0-8.71-2-12.93-2a15.61,15.61,0,0,0-8.09,2.49c-10.49,6.13-11.07,18.95-11.07,18.95,2.32-7.09,4.4-9.13,6.95-9.13,3.45,0,7.74,3.72,14.66,3.72a20.91,20.91,0,0,0,5.39-.73,27.82,27.82,0,0,0,19.75-18.72Z"/><path class="cls-1" d="M18.3,42.53c-.91-.27-2.7-1.26-3.53-4.81a13.74,13.74,0,0,1,1.17-9.44l4.69-6.55A6.78,6.78,0,0,0,21,26.68c1.62,3,5.11,4.84,7.5,5.78ZM83.16,29.11c-9.53,0-21-5.22-29.38-9a96.45,96.45,0,0,0-9.12-3.84c-6.41-2.09-11.55-3.14-15.28-3.14a12.22,12.22,0,0,0-2.75.26L33.92,3.17C34.21,3,36.71,1.5,45.07,1.5c.49,0,1,0,1.54,0C54.06,1.67,64.33,7,73.4,11.73,78,14.11,82.28,16.36,86,17.82a23.47,23.47,0,0,0,8.61,1.77,18.22,18.22,0,0,0,8.41-2c-3.8,4.89-9.23,10-15.91,11.21A23.34,23.34,0,0,1,83.16,29.11Z"/><path class="cls-1" d="M45.07,3l1.51,0c7.1.14,17.21,5.4,26.12,10,4.61,2.4,9,4.66,12.73,6.16a24.91,24.91,0,0,0,9.16,1.87,21,21,0,0,0,3.63-.32c-3.15,3.12-7,5.76-11.39,6.54a21.3,21.3,0,0,1-3.67.3c-9.2,0-20.51-5.15-28.76-8.91a100.51,100.51,0,0,0-9.28-3.9c-6.36-2.07-11.54-3.15-15.39-3.21l5.19-7.25C35.62,4,38.26,3,45.07,3M19.22,26.27a6.77,6.77,0,0,0,.48,1.11,14.09,14.09,0,0,0,6.19,5.56L18,40.72a5.76,5.76,0,0,1-1.77-3.34,12.09,12.09,0,0,1,1-8.28l2-2.83M45.07,0C34.83,0,32.8,2.16,32.8,2.16L14.68,27.46a15,15,0,0,0-1.37,10.61c1.42,6.07,5.49,6.07,5.49,6.07L31.32,31.8s-6.73-1.62-9-5.83,3.78-10.86,3.78-10.86a6.58,6.58,0,0,1,3.25-.52c2.65,0,7.22.59,14.82,3.06,8,2.63,25.08,13,39,13a23.93,23.93,0,0,0,4.19-.35c14.45-2.57,23.1-21.9,23.1-21.9s-5.08,9.73-15.86,9.73a21.72,21.72,0,0,1-8-1.66C75.45,12,58.24.25,46.64,0L45.07,0Z"/><path class="cls-1" d="M71.7,124.6C65.32,118,36.24,88.63,23.9,86a26.54,26.54,0,0,0-5.4-.56,27.69,27.69,0,0,0-8.39,1.32c8.32-7.1,14.25-10.14,19.36-10.14A15.09,15.09,0,0,1,35.41,78C49.23,83.85,81,118.5,81.29,118.85l.41.46C77,122,73.25,123.85,71.7,124.6Zm16.72-9.32c7.36-6,19.15-18.55,12.93-32.87-5.78-13.3-20.94-14.83-31.83-14.83-2.82,0-5.52.1-7.91.2-1.9.08-3.7.15-5.19.15h0c-.89,0-1.61,0-2.21-.08C43.31,66.9,38,63.72,36.88,57.52,33.67,39.33,45.27,26.69,52.07,21c-3.5,5.57-7.18,13.7-4.39,20.31,2.59,6.13,10.1,9.55,22.34,10.16,27.06,1.33,49.48,4.28,49.67,26.86C119.8,92.6,102.45,106.43,88.42,115.28Z"/><path class="cls-1" d="M46.63,28.5c-1.54,4.37-2.14,9.11-.33,13.39C49.13,48.6,57.09,52.33,70,53,97.17,54.31,118,57,118.19,78.34c.07,9.32-8.28,19-18.77,27.36,4.48-6.57,7.23-14.86,3.3-23.88-6.13-14.11-21.89-15.75-33.2-15.75-2.85,0-5.57.11-8,.21-1.89.08-3.67.15-5.13.15-.84,0-1.52,0-2.08-.07-13-1.13-15.35-5.46-16-9.1-1.77-10,.85-19.51,7.77-28.12l.51-.64M29.47,78.16a13.57,13.57,0,0,1,5.35,1.18C47.09,84.57,74.2,113.41,79.33,119c-2.56,1.42-5,2.71-7.31,3.83-9.33-9.57-35.69-35.66-47.81-38.21A28.16,28.16,0,0,0,18.5,84q-1.35,0-2.64.12c5.57-4.12,9.86-5.94,13.61-5.94M58,15.5l-2,.81S30.73,31.25,35.4,57.78c1.42,8.08,9.3,10.75,18.68,11.57.68.06,1.47.08,2.34.08,3.38,0,8-.36,13.1-.36C81.07,69.07,94.71,70.92,100,83c8.16,18.77-17.58,34.83-17.58,34.83S50.28,82.66,36,76.58a16.46,16.46,0,0,0-6.53-1.42C22.19,75.16,13.84,80.5,0,94.1,0,94.1,7.64,87,18.5,87a24.67,24.67,0,0,1,5.09.53c12.25,2.57,43,34,47.29,38.39a1,1,0,0,0,.72.31,1,1,0,0,0,.43-.1c5.87-2.81,49.35-24.4,49.16-47.79C121,53.23,94.86,51.19,70.1,50,29.33,48,58,15.5,58,15.5Z"/><path class="cls-1" d="M187.3,111l.46-73.4,11.58-10.86c-.16,14.4-.79,70.66-.79,75.21,0,5.2,6.57,9,9.4,10.34a2.46,2.46,0,0,0,1.07.24h.31c-4.28,4.54-9,9.49-11.34,11.89Zm34.44-12.61a7.74,7.74,0,0,0-.9-3.2c-1.53-2.86-4.79-4.59-7.07-5.5l9.62-9.48c.84.27,2.49,1.21,3.27,4.51a12.79,12.79,0,0,1-1.09,8.9C225.23,94,223.59,96.07,221.74,98.36Z"/><path class="cls-1" d="M197.8,30.21c-.21,18.35-.75,67.45-.75,71.72,0,5.6,6.15,9.56,9.5,11.31-3.13,3.31-6.32,6.63-8.45,8.86l-9.3-11.65.45-72.22,8.55-8M223.66,82a5.51,5.51,0,0,1,1.54,3,11.38,11.38,0,0,1-.88,7.72l-1.85,2.31c-.1-.2-.2-.41-.31-.62a13.39,13.39,0,0,0-5.78-5.25L223.66,82M199.89,24.48a.93.93,0,0,0-.65.26l-13,12.18-.47,74.23a1,1,0,0,0,.21.6l11.2,14a1,1,0,0,0,.75.36,1,1,0,0,0,.69-.29c3.09-3.22,14.82-15.43,18.91-20.09,2.41-2.75,9.26-11.33,9.26-11.33a14.3,14.3,0,0,0,1.31-10.1c-1.36-5.78-5.23-5.78-5.23-5.78L211,90.32s6.41,1.54,8.55,5.54-.81,8.1-2.74,9.91c-1.36,1.28-5.93,4.32-5.93,4.32l-1.34.78a1,1,0,0,1-.49.14,1.07,1.07,0,0,1-.42-.1c-1.85-.9-8.55-4.47-8.55-9,0-4.69.66-64.13.8-76.48a1,1,0,0,0-1-1Z"/><polygon class="cls-1" points="74.49 95.86 74.49 85.66 83.32 80.57 92.15 85.66 92.15 95.86 83.32 100.95 74.49 95.86"/><path class="cls-1" d="M83.32,82.3l7.33,4.23V95l-7.33,4.23L76,95V86.53l7.33-4.23m0-3.47L73,84.8V96.72l10.33,6,10.33-6V84.8l-10.33-6Z"/></g></g></svg>