<svg xmlns="http://www.w3.org/2000/svg" viewBox="0 0 229.36 127.21"><defs><style>.cls-1{fill:#212529;stroke:#212529;stroke-miterlimit:10;}</style></defs><title>wordmark-black</title><g id="Layer_2" data-name="Layer 2"><g id="Layer_2-2" data-name="Layer 2"><path class="cls-1" d="M134.44,111.5,134,56.37l11.62-10.9c0,12.18,0,52.56,0,57,0,5.18,6.54,8.94,9.35,10.31a2.52,2.52,0,0,0,1.08.25,2.49,2.49,0,0,0,.61-.08l-11.6,12Z"/><path class="cls-1" d="M144.16,48.94c0,15,0,49.45,0,53.53,0,5.66,6.3,9.66,9.6,11.36l-8.55,8.83L135.93,111l-.39-54,8.62-8.08m3-6.93L132.84,55.44a1,1,0,0,0-.3.71l.4,55.55a.89.89,0,0,0,.21.59l11.2,14a1,1,0,0,0,.75.36.94.94,0,0,0,.69-.29l22-22.68v-.23l-11.09,7.86a1,1,0,0,1-.55.17.9.9,0,0,1-.42-.1c-1.91-.93-8.51-4.48-8.51-9,0-5.23,0-60.46,0-60.46Z"/><path class="cls-1" d="M161.92,68.94a2.47,2.47,0,0,0-.92-1.65,44,44,0,0,1-8.42-8.43c-4.27-6.15-4.09-14.25-4-16.23l7.74-8.82c.16,4.45.7,12.57,5.64,18a66.92,66.92,0,0,1,4.77,5.83,13.47,13.47,0,0,0,2.2,2.55Z"/><path class="cls-1" d="M155.08,37.54c.44,4.67,1.7,10.78,5.8,15.27a65.1,65.1,0,0,1,4.67,5.71c.5.67.94,1.26,1.39,1.78l-4.81,6-.21-.18A42.71,42.71,0,0,1,153.81,58c-3.71-5.34-3.82-12.33-3.73-14.78l5-5.68m1.76-6.08a.89.89,0,0,0-.63.25L147.15,42s-1.08,10.11,4.19,17.7a45.65,45.65,0,0,0,8.73,8.76,1,1,0,0,1,.14,1.38l-20,28.58h0L170.46,60.7a1,1,0,0,0-.21-1.44c-1.58-1-2.28-3.12-7.15-8.47C158,45.16,157.94,36,157.8,32.38a1,1,0,0,0-1-.92Z"/><path class="cls-1" d="M199,48a23.35,23.35,0,0,1-9.25-2.23,15,15,0,0,0-5.41-1.49,5.4,5.4,0,0,0-2.34.5,19.5,19.5,0,0,1,7.22-7.53A14.37,14.37,0,0,1,196.57,35a22.71,22.71,0,0,1,5.39.88A30.12,30.12,0,0,0,209.5,37a23.56,23.56,0,0,0,4.52-.45,33.36,33.36,0,0,0,6.52-1.87A26.37,26.37,0,0,1,204,47.35,19.71,19.71,0,0,1,199,48Z"/><path class="cls-1" d="M196.57,36.5a21.53,21.53,0,0,1,5,.83,31.44,31.44,0,0,0,7.9,1.18,25,25,0,0,0,4.81-.48c.91-.18,1.75-.37,2.54-.57a24.79,24.79,0,0,1-13.21,8.44,18,18,0,0,1-4.62.63,22.12,22.12,0,0,1-8.69-2.12,19.24,19.24,0,0,0-5.21-1.57A17.38,17.38,0,0,1,190,38.58a12.57,12.57,0,0,1,6.58-2.08m27.66-6.65s0,.08-.07.23a1.05,1.05,0,0,0,.07-.23Zm-.07.23c-.28.77-1.84,3.33-10.42,5a21.45,21.45,0,0,1-4.24.43c-5.25,0-8.71-2-12.93-2A15.61,15.61,0,0,0,188.48,36C178,42.12,177.41,54.94,177.41,54.94c2.32-7.09,4.4-9.13,7-9.13,3.45,0,7.74,3.72,14.66,3.72a20.91,20.91,0,0,0,5.39-.73,27.82,27.82,0,0,0,19.75-18.72Z"/><path class="cls-1" d="M18.65,43c-.91-.27-2.7-1.26-3.53-4.81a13.74,13.74,0,0,1,1.17-9.44L21,22.23a6.78,6.78,0,0,0,.39,4.95c1.62,3,5.11,4.84,7.5,5.78ZM83.51,29.61c-9.53,0-21-5.22-29.38-9A96.45,96.45,0,0,0,45,16.73c-6.41-2.09-11.55-3.14-15.28-3.14a12.22,12.22,0,0,0-2.75.26L34.27,3.67C34.56,3.48,37.06,2,45.42,2c.49,0,1,0,1.54,0,7.45.15,17.72,5.49,26.79,10.21,4.57,2.38,8.88,4.63,12.58,6.09a23.47,23.47,0,0,0,8.61,1.77,18.19,18.19,0,0,0,8.41-2c-3.8,4.89-9.23,10-15.91,11.21A23.25,23.25,0,0,1,83.51,29.61Z"/><path class="cls-1" d="M45.42,3.5l1.51,0c7.1.14,17.21,5.4,26.12,10,4.61,2.4,9,4.66,12.73,6.16a24.91,24.91,0,0,0,9.16,1.87,21,21,0,0,0,3.63-.32c-3.15,3.12-7,5.76-11.39,6.54a21.3,21.3,0,0,1-3.67.3c-9.2,0-20.5-5.15-28.76-8.91a100.51,100.51,0,0,0-9.28-3.9c-6.36-2.07-11.54-3.15-15.39-3.21l5.19-7.25C36,4.51,38.61,3.5,45.42,3.5M19.57,26.77a6.77,6.77,0,0,0,.48,1.11,14.09,14.09,0,0,0,6.19,5.56l-7.89,7.78a5.76,5.76,0,0,1-1.77-3.34,12.09,12.09,0,0,1,1-8.28l2-2.83M45.42.5C35.18.5,33.15,2.66,33.15,2.66L15,28a15,15,0,0,0-1.37,10.61c1.42,6.07,5.5,6.07,5.5,6.07L31.67,32.3s-6.73-1.62-9-5.83,3.78-10.86,3.78-10.86a6.58,6.58,0,0,1,3.25-.52c2.65,0,7.22.59,14.82,3.06,8.05,2.63,25.08,13,39,13a23.93,23.93,0,0,0,4.19-.35c14.45-2.57,23.1-21.9,23.1-21.9s-5.08,9.73-15.86,9.73a21.72,21.72,0,0,1-8-1.66C75.8,12.53,58.59.75,47,.52L45.42.5Z"/><path class="cls-1" d="M72.05,125.1c-6.38-6.57-35.46-36-47.8-38.56a26.54,26.54,0,0,0-5.4-.56,27.69,27.69,0,0,0-8.39,1.32c8.32-7.1,14.25-10.14,19.36-10.14a15.09,15.09,0,0,1,5.94,1.3C49.58,84.35,81.32,119,81.64,119.35l.41.46C77.33,122.5,73.6,124.35,72.05,125.1Zm16.72-9.32c7.36-6,19.15-18.55,12.93-32.87-5.78-13.3-20.94-14.83-31.83-14.83-2.82,0-5.52.1-7.91.2-1.9.08-3.7.15-5.19.15h0c-.89,0-1.61,0-2.21-.08C43.66,67.4,38.32,64.22,37.23,58,34,39.83,45.62,27.19,52.42,21.5c-3.5,5.57-7.18,13.7-4.39,20.31,2.59,6.13,10.1,9.55,22.34,10.16C97.44,53.3,119.85,56.25,120,78.83,120.15,93.1,102.8,106.93,88.77,115.78Z"/><path class="cls-1" d="M47,29c-1.54,4.37-2.14,9.11-.33,13.39C49.48,49.1,57.44,52.83,70.3,53.46c27.22,1.35,48.06,4.07,48.24,25.38.07,9.32-8.28,19-18.77,27.36,4.48-6.57,7.23-14.86,3.3-23.88-6.13-14.11-21.88-15.75-33.2-15.75-2.85,0-5.57.11-8,.21-1.89.08-3.67.15-5.13.15-.84,0-1.52,0-2.08-.07-12.95-1.13-15.35-5.46-16-9.1-1.77-10,.85-19.51,7.77-28.12L47,29M29.82,78.66a13.57,13.57,0,0,1,5.35,1.18c12.27,5.23,39.38,34.07,44.51,39.61-2.55,1.42-5,2.71-7.31,3.83C63,113.71,36.68,87.62,24.56,85.07a28.16,28.16,0,0,0-5.71-.59q-1.35,0-2.64.12c5.57-4.12,9.86-5.94,13.61-5.94M58.31,16l-2,.81S31.08,31.75,35.75,58.28c1.42,8.08,9.3,10.75,18.68,11.57.68.06,1.47.08,2.34.08,3.38,0,8-.36,13.1-.36,11.55,0,25.19,1.85,30.45,13.94,8.16,18.77-17.58,34.83-17.58,34.83S50.63,83.16,36.35,77.08a16.46,16.46,0,0,0-6.53-1.42C22.54,75.66,14.19,81,.35,94.6c0,0,7.64-7.12,18.5-7.12a24.67,24.67,0,0,1,5.09.53c12.25,2.57,43,34,47.29,38.39a1,1,0,0,0,.72.31,1,1,0,0,0,.43-.1c5.87-2.81,49.35-24.4,49.16-47.79-.21-25.09-26.33-27.13-51.09-28.35C29.68,48.46,58.31,16,58.31,16Z"/><path class="cls-1" d="M187.65,111.47l.46-73.4,11.58-10.86c-.16,14.4-.79,70.66-.79,75.21,0,5.2,6.57,9,9.4,10.34a2.46,2.46,0,0,0,1.07.24h.31c-4.28,4.54-9,9.49-11.34,11.89Zm34.44-12.61a7.74,7.74,0,0,0-.9-3.2c-1.53-2.86-4.79-4.59-7.07-5.5l9.62-9.48c.84.27,2.49,1.21,3.27,4.51a12.79,12.79,0,0,1-1.09,8.9C225.58,94.53,223.94,96.57,222.09,98.86Z"/><path class="cls-1" d="M198.15,30.71c-.21,18.35-.75,67.45-.75,71.72,0,5.6,6.15,9.56,9.5,11.31-3.13,3.31-6.31,6.63-8.45,8.86L189.15,111l.45-72.22,8.55-8M224,82.52a5.51,5.51,0,0,1,1.54,3,11.38,11.38,0,0,1-.88,7.72l-1.85,2.31c-.1-.2-.2-.41-.31-.62a13.34,13.34,0,0,0-5.78-5.25L224,82.52M200.24,25a.93.93,0,0,0-.65.26l-13,12.18-.46,74.23a.92.92,0,0,0,.2.6l11.2,14a1,1,0,0,0,.75.36,1,1,0,0,0,.69-.29c3.09-3.22,14.82-15.43,18.91-20.09,2.41-2.75,9.26-11.33,9.26-11.33a14.3,14.3,0,0,0,1.31-10.1c-1.36-5.78-5.23-5.78-5.23-5.78L211.32,90.82s6.41,1.54,8.55,5.54-.81,8.1-2.74,9.91c-1.36,1.28-5.93,4.32-5.93,4.32l-1.34.78a1,1,0,0,1-.49.14,1.07,1.07,0,0,1-.42-.1c-1.85-.9-8.55-4.47-8.55-9,0-4.69.66-64.13.8-76.48a1,1,0,0,0-1-1Z"/><polygon class="cls-1" points="74.84 96.36 74.84 86.16 83.67 81.07 92.5 86.16 92.5 96.36 83.67 101.45 74.84 96.36"/><path class="cls-1" d="M83.67,82.8,91,87v8.46l-7.33,4.23-7.33-4.23V87l7.33-4.23m0-3.47-10.33,6V97.22l10.33,6,10.33-6V85.3l-10.33-6Z"/></g></g></svg>